<?xml version="1.0" encoding="UTF-8" standalone="no" ?>
<!DOCTYPE svg PUBLIC "-//W3C//DTD SVG 1.1//EN" "http://www.w3.org/Graphics/SVG/1.1/DTD/svg11.dtd">
<svg xmlns="http://www.w3.org/2000/svg" xmlns:xlink="http://www.w3.org/1999/xlink" version="1.1" width="1080" height="1080" viewBox="0 0 1080 1080" xml:space="preserve">
<desc>Created with Fabric.js 5.2.4</desc>
<defs>
</defs>
<rect x="0" y="0" width="100%" height="100%" fill="transparent"></rect>
<g transform="matrix(1 0 0 1 540 540)" id="0f8c148b-08df-46c2-b620-677d01da8c5b"  >
</g>
<g transform="matrix(1 0 0 1 540 540)" id="699c8673-c2b8-4cd5-aa66-9d6a9c4e417b"  >
<rect style="stroke: none; stroke-width: 1; stroke-dasharray: none; stroke-linecap: butt; stroke-dashoffset: 0; stroke-linejoin: miter; stroke-miterlimit: 4; fill: rgb(255,255,255); fill-rule: nonzero; opacity: 1; visibility: hidden;" vector-effect="non-scaling-stroke"  x="-540" y="-540" rx="0" ry="0" width="1080" height="1080" />
</g>
<g transform="matrix(14.26 0 0 14.46 540 518.53)" id="2ad8ee5d-6799-410a-ace2-eed27b0210c0"  >
<circle style="stroke: rgb(0,0,0); stroke-width: 0; stroke-dasharray: none; stroke-linecap: butt; stroke-dashoffset: 0; stroke-linejoin: miter; stroke-miterlimit: 4; fill: rgb(187,223,184); fill-rule: nonzero; opacity: 1;" vector-effect="non-scaling-stroke"  cx="0" cy="0" r="35" />
</g>
<g transform="matrix(12.59 0 0 12.59 503.5 570.96)"  >
<path style="stroke: rgb(0,0,0); stroke-width: 0; stroke-dasharray: none; stroke-linecap: butt; stroke-dashoffset: 0; stroke-linejoin: miter; stroke-miterlimit: 4; fill: rgb(0,22,138); fill-opacity: 0.95; fill-rule: nonzero; opacity: 1;" vector-effect="non-scaling-stroke"  transform=" translate(-50, -50)" d="M 86.118 69.092 C 85.524 67.905 84.08 67.397 82.893 67.989 C 75.169 71.807 70.63 72.655 67.917 71.807 C 65.795 71.128 64.777 69.006 64.056 66.46000000000001 C 67.40599999999999 61.83500000000001 69.399 56.14900000000001 69.399 49.99900000000001 C 69.399 34.59900000000001 56.929 22.12600000000001 41.525999999999996 22.12600000000001 C 26.125999999999998 22.12600000000001 13.652999999999995 34.59900000000001 13.652999999999995 49.99900000000001 C 13.652999999999995 65.399 26.125999999999998 77.873 41.525999999999996 77.873 C 48.824999999999996 77.873 55.443999999999996 75.116 60.408 70.536 C 61.554 73.248 63.334 75.415 66.517 76.388 C 70.28999999999999 77.578 76.02 76.72800000000001 85.012 72.27600000000001 C 86.202 71.723 86.667 70.278 86.118 69.092 z M 41.526 26.199 C 45.981 26.199 49.588 29.806 49.588 34.261 C 49.588 38.672000000000004 45.981 42.28 41.526 42.28 C 37.071000000000005 42.28 33.466 38.673 33.466 34.261 C 33.467 29.806 37.071 26.199 41.526 26.199 z M 26.211 57.595 C 21.796999999999997 57.595 18.192 53.988 18.192 49.533 C 18.192 45.079 21.796 41.472 26.252000000000002 41.472 C 30.666000000000004 41.472 34.271 45.079 34.271 49.533 C 34.271 53.987 30.667 57.595 26.211 57.595 z M 41.526 72.909 C 37.071000000000005 72.909 33.466 69.305 33.466 64.849 C 33.466 60.395 37.07 56.787000000000006 41.526 56.787000000000006 C 45.982000000000006 56.787000000000006 49.588 60.394000000000005 49.588 64.849 C 49.588 69.305 45.981 72.909 41.526 72.909 z M 56.845 57.595 C 52.39 57.595 48.782 53.988 48.782 49.533 C 48.782 45.079 52.38999999999999 41.472 56.845 41.472 C 61.297 41.472 64.905 45.079 64.905 49.533 C 64.904 53.987 61.297 57.595 56.845 57.595 z" stroke-linecap="round" />
</g>
<g transform="matrix(-7.82 -0.66 0.64 -7.47 750.96 577.55)"  >
<path style="stroke: rgb(0,0,0); stroke-width: 0; stroke-dasharray: none; stroke-linecap: butt; stroke-dashoffset: 0; stroke-linejoin: miter; stroke-miterlimit: 4; fill: rgb(216,27,33); fill-rule: nonzero; opacity: 1;" vector-effect="non-scaling-stroke"  transform=" translate(-50, -50)" d="M 74.913 52.717 L 86.084 41.717 L 50.636 49.451 L 58.369 14.002000000000002 L 47.327 25.174 L 41.486 51.041 L 39.852 52.674 C 39.507999999999996 51.169 38.736 49.796 37.531 48.591 C 33.235 44.295 25.028999999999996 44.209 19.229 48.333 C 13.425999999999998 52.458999999999996 12.18 59.29 16.479 63.588 C 20.732999999999997 67.885 28.939999999999998 67.971 34.739999999999995 63.846000000000004 C 36.456999999999994 62.601000000000006 37.78999999999999 61.138000000000005 38.693 59.593 L 40.327 61.224000000000004 C 38.778999999999996 62.127 37.275 63.416000000000004 36.073 65.178 C 31.905 70.979 32.034 79.18599999999999 36.33 83.441 C 40.626 87.73700000000001 47.458999999999996 86.49000000000001 51.583 80.69 C 55.707 74.846 55.620999999999995 66.682 51.324999999999996 62.384 C 50.294999999999995 61.354 49.089999999999996 60.623 47.80199999999999 60.237 L 49.52199999999999 58.518 L 74.913 52.717 z M 23.008 58.604 C 19.227999999999998 54.824 27.52 49.666 31.085 53.189 C 34.395 56.67 26.401 60.837 23.008 58.604 z M 41.269 76.864 C 39.077999999999996 73.512 43.247 65.52000000000001 46.726 68.82900000000001 C 50.249 72.396 45.094 80.689 41.269 76.864 z" stroke-linecap="round" />
</g>
</svg>